<svg viewBox="0 0 512 512" xmlns="http://www.w3.org/2000/svg"><path d="M480 224H224c-17.7 0-32 14.3-32 32s14.33 32 32 32h256c17.67 0 32-14.33 32-32s-14.3-32-32-32zm-256-96h256c17.67 0 32-14.33 32-32s-14.33-32-32-32H224c-17.7 0-32 14.33-32 32s14.3 32 32 32zm256 256H224c-17.67 0-32 14.33-32 32s14.33 32 32 32h256c17.67 0 32-14.33 32-32s-14.3-32-32-32zM40 224h80c13.3 0 24-10.7 24-24.9s-10.75-24-24-24h-16V55.99a23.98 23.98 0 0 0-12.06-20.81c-7.44-4.27-16.66-4.23-24.03.07l-32 18.67c-11.44 6.69-15.32 21.38-8.63 32.83C33.13 96.85 45.31 101.1 56 97.29V176H40c-13.25 0-24 10.75-24 24s10.75 24 24 24zm96.3 208H86.86l36.4-32.48c29.92-25.83 33.54-71.36 8.049-101.5C118.6 282.1 100.7 273.8 80.89 272.2c-19.62-1.5-38.96 4.7-53.97 17.7l-12.5 10.8c-10.04 8.656-11.17 23.81-2.527 33.86 8.672 10.06 23.8 11.14 33.78 2.516l12.51-10.79c5.24-4.531 12.1-6.672 18.96-6.156 6.926.547 13.2 3.734 17.62 8.969 8.703 10.28 7.486 25.26-3.057 34.36l-83.7 74.67c-7.424 6.625-9.982 17.16-6.457 26.47C5.119 473.8 14.01 480 23.96 480h112.4c13.23 0 23.96-10.75 23.96-23.1-.02-14.1-10.82-24.9-24.02-24.9z" fill="#ffffff" class="fill-000000"></path></svg>