<svg viewBox="0 0 640 512" height ='25px' width='25px' xmlns="http://www.w3.org/2000/svg"><path d="m314.6 216.6-29-16.7c1.5-7.8 2.4-15.7 2.4-23.8 0-8.3-.9-16.3-2.4-25l29-15.9c4.293-2.48 6.445-7.695 4.883-12.4C312.2 100.1 300.6 81.11 285.7 64.28c-2-2.25-4.8-3.41-7.7-3.41-1.861 0-3.736.478-5.42 1.449L243 79.41c-12-10.3-25.7-18.34-40.9-23.66v-34.1c0-4.943-3.418-9.348-8.258-10.36C182.9 9.002 171.6 7.67 160 7.67c-11.61 0-22.88 1.342-33.81 3.632-4.84 1.016-8.248 5.41-8.248 10.35v34.09C102.7 61.07 88.96 69.11 76.98 79.41L47.39 62.32c-1.68-.97-3.56-1.45-5.42-1.45-2.893 0-5.648 1.169-7.652 3.427C19.39 81.12 7.758 100.1.508 122.8c-1.561 4.7.59 9.9 4.883 12.4l29.04 16.77C32.93 159.8 32 167.8 32 176.1c0 8.137.943 16.04 2.395 23.75L5.391 216.6c-4.293 2.5-6.444 7.7-4.883 11.5a168.01 168.01 0 0 0 33.71 58.52c2.002 3.18 4.862 4.28 7.752 4.28 1.861 0 3.738-.478 5.42-1.449L76.7 272.6c12.04 10.41 25.91 18.53 41.24 23.89v33.69c0 4.941 3.419 9.279 8.258 10.29C137.1 342.7 148.4 344.1 160 344.1c11.61 0 22.88-1.411 33.81-3.7 4.84-1.016 8.247-5.343 8.247-10.28V296.5c15.34-5.365 29.2-13.49 41.24-23.9l29.303 16.9a10.84 10.84 0 0 0 5.42 1.449c2.891 0 5.646-1.238 7.652-3.498 14.92-16.83 26.56-36.6 33.81-58.44 1.618-4.711-.582-9.911-4.882-12.411zM160 224.1c-26.51 0-48-21.49-48-48s21.49-48 48-48 48 21.49 48 48-21.5 48-48 48zm468.5 94.1c-1.016-4.84-5.412-8.248-10.36-8.248h-34.09c-5.324-15.22-13.36-28.98-23.66-40.96l17.09-29.6a10.84 10.84 0 0 0 1.449-5.42c0-2.893-1.167-5.648-3.425-7.652-16.83-14.92-36.67-26.56-58.51-33.81-4.703-1.561-9.918.59-12.4 4.883l-16.77 29.04C479.1 224.9 471.1 224 463.7 224c-8.137 0-16.04.943-23.75 2.395L423.2 197.4c-2.48-4.293-7.699-6.443-12.4-4.883a168.01 168.01 0 0 0-58.52 33.71c-2.26 2.004-3.419 4.857-3.419 7.748 0 1.861.48 3.738 1.45 5.42l16.92 29.31c-10.41 12.04-18.53 25.91-23.89 41.24H309.6c-4.941 0-9.496 3.393-10.51 8.232C296.8 329.1 295.7 340.4 295.7 352c0 11.61 1.184 22.9 3.473 33.82.927 4.88 5.527 8.28 10.427 8.28h33.69c5.365 15.34 13.49 29.2 23.9 41.24l-16.92 29.31a10.842 10.842 0 0 0-1.45 5.42c0 2.891 1.044 5.742 3.304 7.748 16.83 14.92 36.8 26.46 58.63 33.71 4.703 1.562 9.922-.59 12.4-4.883l16.74-29C447.6 479.1 455.5 480 463.7 480c8.268 0 16.3-.934 24.13-2.432l16.77 29.04c2.48 4.293 7.695 6.445 12.4 4.883 21.84-7.25 41.69-18.9 58.52-33.82 2.258-2.006 3.414-4.751 3.414-7.642 0-1.861-.478-3.736-1.449-5.42l-17.09-29.6c10.29-11.98 18.34-25.74 23.66-40.96h34.09c4.943 0 9.35-3.418 10.37-8.258C630.8 374.9 632.1 363.6 632.1 352c0-11.6-1.3-22.9-3.6-33.8zM463.7 400c-26.51 0-48-21.49-48-48s21.49-48 48-48 48 21.49 48 48-21.5 48-48 48z" fill="#ffffff" class="fill-000000"></path></svg>